<mxfile host="Electron" agent="Mozilla/5.0 (Windows NT 10.0; Win64; x64) AppleWebKit/537.36 (KHTML, like Gecko) draw.io/24.7.17 Chrome/128.0.6613.36 Electron/32.0.1 Safari/537.36" version="24.7.17">
  <diagram name="Seite-1" id="R0aHDFtCkrT7WoSOV8md">
    <mxGraphModel dx="1434" dy="957" grid="1" gridSize="10" guides="1" tooltips="1" connect="1" arrows="1" fold="1" page="1" pageScale="1" pageWidth="1169" pageHeight="827" math="0" shadow="0">
      <root>
        <mxCell id="0" />
        <mxCell id="1" parent="0" />
        <mxCell id="5FB76fzgtN4Mtl5dD62B-1" value="" style="html=1;shadow=0;dashed=0;shape=mxgraph.bootstrap.rrect;rSize=5;strokeColor=#0071D5;html=1;whiteSpace=wrap;fillColor=#0085FC;fontColor=#ffffff;verticalAlign=bottom;align=left;spacing=20;spacingBottom=0;fontSize=14;" parent="1" vertex="1">
          <mxGeometry x="50" y="100" width="380" height="280" as="geometry" />
        </mxCell>
        <mxCell id="5FB76fzgtN4Mtl5dD62B-2" value="Naemon Process" style="html=1;shadow=0;dashed=0;shape=mxgraph.bootstrap.topButton;rSize=5;perimeter=none;whiteSpace=wrap;fillColor=#0081F4;strokeColor=#0071D5;fontColor=#ffffff;resizeWidth=1;fontSize=18;align=left;spacing=20;" parent="5FB76fzgtN4Mtl5dD62B-1" vertex="1">
          <mxGeometry width="380" height="50" relative="1" as="geometry" />
        </mxCell>
        <mxCell id="cy9vblpNPn31SKOtWbtc-17" value="Check Logic" style="rounded=0;whiteSpace=wrap;html=1;fillColor=#1ba1e2;fontColor=#ffffff;strokeColor=#006EAF;fontSize=16;" parent="5FB76fzgtN4Mtl5dD62B-1" vertex="1">
          <mxGeometry x="30.26" y="76.36" width="319.48" height="64" as="geometry" />
        </mxCell>
        <mxCell id="cy9vblpNPn31SKOtWbtc-49" style="edgeStyle=orthogonalEdgeStyle;rounded=0;orthogonalLoop=1;jettySize=auto;html=1;strokeColor=#1D0101;" parent="5FB76fzgtN4Mtl5dD62B-1" source="cy9vblpNPn31SKOtWbtc-44" target="cy9vblpNPn31SKOtWbtc-17" edge="1">
          <mxGeometry relative="1" as="geometry" />
        </mxCell>
        <mxCell id="cy9vblpNPn31SKOtWbtc-44" value="External Command Logic" style="rounded=0;whiteSpace=wrap;html=1;fillColor=#1ba1e2;fontColor=#ffffff;strokeColor=#006EAF;fontSize=16;" parent="5FB76fzgtN4Mtl5dD62B-1" vertex="1">
          <mxGeometry x="30.26" y="190" width="319.48" height="64" as="geometry" />
        </mxCell>
        <mxCell id="t33chXEk3_tx0NLD2dZh-2" style="edgeStyle=orthogonalEdgeStyle;rounded=0;orthogonalLoop=1;jettySize=auto;html=1;strokeColor=#1D0101;" parent="1" source="cy9vblpNPn31SKOtWbtc-46" edge="1">
          <mxGeometry relative="1" as="geometry">
            <mxPoint x="240" y="560" as="targetPoint" />
          </mxGeometry>
        </mxCell>
        <mxCell id="cy9vblpNPn31SKOtWbtc-46" value="External&lt;div style=&quot;font-size: 16px;&quot;&gt;Applications&lt;/div&gt;" style="rounded=0;whiteSpace=wrap;html=1;fillColor=#647687;fontColor=#ffffff;strokeColor=#314354;fontSize=16;" parent="1" vertex="1">
          <mxGeometry x="110" y="600" width="260" height="140" as="geometry" />
        </mxCell>
        <mxCell id="t33chXEk3_tx0NLD2dZh-3" style="edgeStyle=orthogonalEdgeStyle;rounded=0;orthogonalLoop=1;jettySize=auto;html=1;entryX=0.5;entryY=1;entryDx=0;entryDy=0;strokeColor=#1D0101;" parent="1" source="t33chXEk3_tx0NLD2dZh-1" target="cy9vblpNPn31SKOtWbtc-44" edge="1">
          <mxGeometry relative="1" as="geometry" />
        </mxCell>
        <mxCell id="t33chXEk3_tx0NLD2dZh-1" value="&lt;span style=&quot;color: rgb(255, 255, 255); font-size: 16px;&quot;&gt;&lt;font style=&quot;font-size: 16px;&quot;&gt;External&lt;/font&gt;&lt;/span&gt;&lt;div style=&quot;color: rgb(255, 255, 255); font-size: 16px;&quot;&gt;&lt;font style=&quot;font-size: 16px;&quot;&gt;Command&lt;/font&gt;&lt;/div&gt;&lt;div style=&quot;color: rgb(255, 255, 255); font-size: 16px;&quot;&gt;&lt;font style=&quot;font-size: 16px;&quot;&gt;File&lt;/font&gt;&lt;/div&gt;&lt;div style=&quot;color: rgb(255, 255, 255); font-size: 16px;&quot;&gt;&lt;font style=&quot;font-size: 16px;&quot;&gt;(naemon.cmd)&lt;/font&gt;&lt;/div&gt;" style="shape=note;whiteSpace=wrap;html=1;backgroundOutline=1;darkOpacity=0.05;fillColor=#76608a;fontColor=#ffffff;strokeColor=#432D57;" parent="1" vertex="1">
          <mxGeometry x="180" y="420" width="120" height="136" as="geometry" />
        </mxCell>
      </root>
    </mxGraphModel>
  </diagram>
</mxfile>
